<?xml version="1.0" standalone="no"?>
<!DOCTYPE svg PUBLIC "-//W3C//DTD SVG 20010904//EN"
 "http://www.w3.org/TR/2001/REC-SVG-20010904/DTD/svg10.dtd">
<svg version="1.0" xmlns="http://www.w3.org/2000/svg"
 width="82.000000pt" height="91.000000pt" viewBox="0 0 82.000000 91.000000"
 preserveAspectRatio="xMidYMid meet">

<g transform="translate(0.000000,91.000000) scale(0.100000,-0.100000)"
fill="#000000" stroke="none">
<path d="M323 855 c-68 -15 -97 -28 -130 -58 -23 -21 -30 -51 -14 -61 5 -3 11
-23 14 -43 5 -40 -32 -173 -57 -206 -13 -17 -15 -16 -35 10 l-20 28 -1 -41 c0
-22 5 -45 11 -51 14 -14 19 -64 9 -84 -6 -10 0 -29 15 -55 14 -21 29 -50 36
-64 6 -14 17 -38 25 -53 8 -16 14 -35 14 -43 0 -17 1 -17 34 -5 17 7 23 15 19
29 -3 13 4 24 23 36 l27 18 -7 -26 c-3 -14 -9 -46 -12 -70 -6 -43 -6 -43 27
-49 44 -8 214 -8 258 0 32 5 33 7 28 44 -3 26 1 50 15 77 16 33 26 42 63 51
35 9 51 20 71 51 25 38 26 41 10 65 -12 18 -15 36 -10 60 4 25 1 44 -14 69
-26 44 -51 131 -56 196 -9 106 -42 162 -105 180 -49 14 -163 11 -238 -5z m194
-91 c8 -20 -17 -36 -34 -22 -10 8 -10 14 -2 24 15 18 28 18 36 -2z m-149 -17
c2 -12 -3 -17 -17 -17 -12 0 -21 6 -21 13 0 31 32 34 38 4z m257 -5 c-8 -8
-25 10 -19 20 4 6 9 5 15 -3 4 -7 6 -15 4 -17z m-395 -3 c0 -6 -4 -7 -10 -4
-5 3 -10 11 -10 16 0 6 5 7 10 4 6 -3 10 -11 10 -16z m230 -6 c27 -15 32 -15
71 0 37 15 44 15 70 1 16 -8 29 -20 29 -27 0 -9 -50 -12 -205 -12 -113 0 -205
3 -205 6 0 4 11 14 25 23 22 14 29 15 67 1 39 -13 45 -13 73 5 37 24 40 24 75
3z m153 -138 c4 -33 8 -72 8 -87 0 -21 5 -28 21 -28 18 0 19 -4 13 -52 -12
-87 -27 -112 -81 -135 -27 -12 -66 -24 -86 -28 -21 -4 -38 -11 -38 -16 0 -5
-9 -9 -20 -9 -11 0 -20 4 -20 9 0 5 -17 12 -37 16 -66 12 -133 46 -148 75 -8
15 -17 50 -21 77 -6 46 -4 52 15 63 12 6 19 14 17 19 -6 9 11 139 20 152 3 5
82 8 177 7 l172 -3 8 -60z m-391 -2 c-5 -67 -18 -97 -61 -137 -38 -37 -38 -32
-2 37 15 30 34 77 42 106 7 28 16 51 19 51 4 0 5 -26 2 -57z m442 -12 c10 -37
26 -81 37 -97 27 -41 24 -52 -7 -23 -36 33 -64 96 -64 147 0 62 14 51 34 -27z
m58 -217 c7 -16 7 -32 -2 -58 -10 -30 -18 -37 -53 -47 -23 -6 -45 -13 -50 -16
-4 -2 -10 3 -13 12 -4 10 4 27 24 46 17 17 34 44 37 62 4 18 15 40 24 51 15
18 16 18 19 -5 2 -13 8 -34 14 -45z m-544 44 c5 -7 13 -28 17 -47 4 -19 18
-44 32 -57 l24 -22 -21 -7 c-33 -10 -45 9 -80 118 -9 29 8 39 28 15z m116
-146 c11 -18 -45 -65 -68 -56 -26 10 -18 34 17 49 38 17 44 18 51 7z m289 -22
c5 -22 3 -25 -23 -25 -37 0 -41 27 -7 42 12 6 22 10 23 9 1 0 4 -12 7 -26z
m-222 0 c5 0 9 -18 9 -39 0 -28 8 -49 26 -70 l26 -31 -65 0 -65 0 8 38 c4 20
11 54 15 75 5 29 10 37 21 33 9 -3 20 -6 25 -6z m149 -21 c0 -12 11 -31 23
-43 13 -12 27 -34 31 -49 l6 -27 -66 0 -66 0 27 32 c22 26 26 39 22 70 -4 28
-2 38 9 38 8 0 14 -10 14 -21z m-46 -15 c6 -17 -19 -74 -33 -74 -5 0 -16 12
-26 26 -13 20 -14 29 -5 38 9 8 14 8 17 -2 3 -6 9 -10 13 -7 5 3 7 12 3 20 -3
9 1 15 10 15 8 0 18 -7 21 -16z"/>
<path d="M275 561 c-7 -13 2 -17 53 -26 28 -4 42 -3 42 4 0 23 -82 41 -95 22z"/>
<path d="M513 560 c-40 -16 -27 -32 20 -25 48 8 57 12 57 26 0 11 -47 11 -77
-1z"/>
<path d="M283 484 c-3 -8 -1 -20 5 -26 16 -16 47 -5 50 20 3 18 -1 22 -23 22
-14 0 -28 -7 -32 -16z"/>
<path d="M522 478 c4 -31 53 -34 53 -3 0 15 -8 21 -28 23 -25 3 -28 0 -25 -20z"/>
<path d="M386 452 c-3 -5 15 -8 39 -8 25 1 45 4 45 9 0 10 -78 9 -84 -1z"/>
<path d="M603 433 c-13 -13 -34 -23 -50 -23 -19 0 -24 -3 -16 -11 17 -17 54
-6 76 23 26 35 19 42 -10 11z"/>
<path d="M230 443 c0 -32 79 -68 95 -43 4 6 -6 10 -21 10 -15 0 -38 10 -51 22
-13 12 -23 17 -23 11z"/>
<path d="M340 435 c-7 -8 -8 -15 -2 -15 5 0 15 7 22 15 7 8 8 15 2 15 -5 0
-15 -7 -22 -15z"/>
<path d="M502 434 c10 -10 20 -15 24 -12 3 4 -5 12 -18 18 -22 12 -22 12 -6
-6z"/>
<path d="M415 410 c-3 -5 -16 -10 -28 -10 -15 0 -18 -3 -10 -11 8 -8 17 -8 32
0 15 9 26 9 42 1 11 -7 28 -9 37 -5 13 5 7 10 -23 21 -48 17 -43 16 -50 4z"/>
</g>
</svg>
