<?xml version="1.0" standalone="no"?>
<!DOCTYPE svg PUBLIC "-//W3C//DTD SVG 20010904//EN"
 "http://www.w3.org/TR/2001/REC-SVG-20010904/DTD/svg10.dtd">
<svg version="1.0" xmlns="http://www.w3.org/2000/svg"
 width="88.000000pt" height="91.000000pt" viewBox="0 0 88.000000 91.000000"
 preserveAspectRatio="xMidYMid meet">

<g transform="translate(0.000000,91.000000) scale(0.100000,-0.100000)"
fill="#000000" stroke="none">
<path d="M380 851 c-14 -5 -34 -13 -45 -19 -11 -6 -33 -13 -48 -17 -40 -8 -75
-46 -83 -91 -3 -22 -19 -52 -34 -69 -38 -41 -50 -68 -50 -108 0 -23 -11 -47
-34 -78 -34 -44 -39 -57 -37 -92 1 -21 78 -57 122 -57 31 0 34 -7 20 -57 -8
-26 -6 -35 10 -49 14 -13 19 -28 17 -54 -3 -34 -2 -35 34 -38 36 -3 38 -5 35
-35 l-2 -32 75 0 75 0 6 35 6 35 4 -35 4 -35 75 0 75 0 -2 32 c-3 30 -1 32 35
35 35 3 37 4 34 36 -2 21 3 40 13 52 14 15 16 29 11 65 -7 45 -7 45 23 45 16
0 50 9 75 20 41 17 46 23 46 52 0 23 -11 47 -35 77 -22 27 -35 55 -35 73 0 39
-23 89 -52 114 -15 13 -28 37 -31 60 -10 59 -43 91 -121 119 -69 25 -137 31
-186 16z m40 -178 c36 -2 83 -1 106 5 33 7 44 6 62 -8 42 -34 53 -103 28 -165
-19 -45 -51 -53 -104 -26 -51 26 -82 26 -132 1 -22 -11 -48 -20 -59 -20 -39 0
-70 77 -57 145 9 46 45 87 71 80 11 -4 49 -9 85 -12z m45 -213 c4 -6 -5 -10
-20 -10 -15 0 -24 4 -20 10 3 6 12 10 20 10 8 0 17 -4 20 -10z m18 -22 c-2 -5
-19 -8 -38 -8 -19 0 -36 3 -38 8 -3 4 14 7 38 7 24 0 41 -3 38 -7z m-205 -160
c3 -37 3 -38 -32 -38 -28 0 -36 4 -35 18 0 10 3 12 6 5 2 -7 16 -13 29 -13 20
0 24 5 24 31 0 28 -3 31 -25 27 -14 -3 -25 -1 -25 4 0 5 12 8 28 6 23 -3 27
-8 30 -40z m391 20 c-1 -17 -2 -19 -6 -5 -2 9 -13 17 -24 17 -14 0 -19 -7 -19
-30 0 -25 4 -30 24 -30 13 0 27 6 29 13 3 7 6 5 6 -5 1 -14 -7 -18 -34 -18
-33 0 -35 2 -35 33 0 40 6 47 37 47 18 0 23 -5 22 -22z m-339 -10 c10 -21 10
-22 -4 -5 -14 18 -15 17 -19 -15 l-4 -33 -1 38 c-2 41 12 49 28 15z m259 -5
c-2 -24 -2 -25 -6 -5 -3 13 -9 19 -15 16 -7 -4 -8 -2 -4 4 13 21 26 13 25 -15z
m-38 -26 c-10 -9 -11 -8 -5 6 3 10 9 15 12 12 3 -3 0 -11 -7 -18z m-299 -49
c-9 -9 -15 -9 -24 0 -9 9 -7 12 12 12 19 0 21 -3 12 -12z m48 9 c0 -2 -10 -12
-21 -23 -22 -19 -22 -19 -8 4 12 19 29 30 29 19z m318 -17 c7 -11 11 -20 9
-20 -2 0 -12 9 -22 20 -10 11 -14 20 -9 20 5 0 15 -9 22 -20z m44 8 c-9 -9
-15 -9 -24 0 -9 9 -7 12 12 12 19 0 21 -3 12 -12z m-115 -40 c-3 -8 -6 -5 -6
6 -1 11 2 17 5 13 3 -3 4 -12 1 -19z m-292 2 c3 -5 1 -10 -4 -10 -6 0 -11 5
-11 10 0 6 2 10 4 10 3 0 8 -4 11 -10z m398 -10 c5 -19 1 -20 -56 -18 l-62 2
53 3 c37 3 52 8 52 19 0 20 7 17 13 -6z m-330 -17 c-18 -2 -48 -2 -65 0 -18 2
-4 4 32 4 36 0 50 -2 33 -4z"/>
<path d="M302 598 c-19 -19 -14 -23 33 -23 25 0 45 2 45 6 0 12 -26 29 -45 29
-12 0 -26 -5 -33 -12z"/>
<path d="M522 598 c-20 -20 -14 -23 33 -20 38 3 44 6 34 18 -14 17 -51 18 -67
2z"/>
<path d="M309 554 c-11 -14 -10 -18 6 -30 16 -12 21 -12 33 0 17 17 9 46 -11
46 -8 0 -21 -7 -28 -16z"/>
<path d="M537 563 c-12 -11 -7 -41 7 -46 8 -3 22 0 32 8 15 11 16 15 5 29 -14
17 -33 21 -44 9z"/>
</g>
</svg>
