<?xml version="1.0" standalone="no"?>
<!DOCTYPE svg PUBLIC "-//W3C//DTD SVG 20010904//EN"
 "http://www.w3.org/TR/2001/REC-SVG-20010904/DTD/svg10.dtd">
<svg version="1.0" xmlns="http://www.w3.org/2000/svg"
 width="89.000000pt" height="86.000000pt" viewBox="0 0 89.000000 86.000000"
 preserveAspectRatio="xMidYMid meet">

<g transform="translate(0.000000,86.000000) scale(0.100000,-0.100000)"
fill="#000000" stroke="none">
<path d="M349 801 c-106 -12 -158 -53 -208 -165 -17 -37 -42 -82 -56 -98 -28
-33 -32 -74 -11 -103 12 -17 12 -22 -5 -44 -24 -30 -24 -66 0 -83 11 -8 21
-27 23 -43 3 -26 8 -30 36 -33 18 -2 40 2 48 9 12 10 13 7 9 -17 -4 -22 1 -36
20 -57 26 -29 55 -31 55 -3 0 9 9 20 21 26 19 11 20 9 13 -24 -6 -33 -4 -36
18 -36 36 0 41 -11 18 -35 -18 -19 -19 -24 -6 -34 8 -7 34 -11 58 -9 42 3 43
4 49 43 l6 40 2 -42 1 -43 50 0 c56 0 78 22 46 46 -22 16 -13 34 17 34 25 0
53 50 43 76 -3 8 2 26 12 39 13 18 24 22 47 18 21 -3 35 0 44 11 7 9 23 16 35
16 12 0 32 7 44 16 18 13 22 22 17 44 -4 19 -1 37 10 54 16 25 16 26 -13 55
-19 20 -26 34 -21 43 17 25 9 55 -22 84 -17 16 -51 59 -75 96 -59 92 -106 122
-193 124 -36 1 -96 -1 -132 -5z m5 -295 c10 -16 26 -26 41 -26 23 0 24 3 27
69 l3 70 45 -57 c36 -45 52 -57 75 -57 16 -1 31 -7 33 -15 3 -8 12 -23 21 -33
14 -17 14 -19 -2 -28 -10 -6 -17 -22 -17 -40 0 -36 -22 -46 -126 -61 -88 -13
-164 -4 -164 19 0 9 -10 27 -21 40 -17 17 -19 26 -11 36 6 7 11 33 10 58 0 26
9 67 23 98 l23 54 11 -51 c7 -28 19 -62 29 -76z m184 -203 c-4 -23 -68 -32
-68 -9 0 13 17 20 58 25 8 0 12 -7 10 -16z m-143 -13 c-3 -5 -19 -10 -36 -10
-16 0 -29 5 -29 10 0 6 16 10 36 10 21 0 33 -4 29 -10z m105 -60 c0 -5 -4 -10
-9 -10 -6 0 -13 5 -16 10 -3 6 1 10 9 10 9 0 16 -4 16 -10z m-90 -35 c0 -20
-5 -25 -25 -25 -20 0 -25 5 -25 25 0 20 5 25 25 25 20 0 25 -5 25 -25z"/>
<path d="M293 483 c9 -2 23 -2 30 0 6 3 -1 5 -18 5 -16 0 -22 -2 -12 -5z"/>
<path d="M504 466 c-3 -9 -4 -23 0 -31 8 -21 51 -3 51 21 0 24 -43 32 -51 10z"/>
<path d="M288 448 c-9 -23 3 -38 28 -38 19 0 24 5 24 25 0 20 -5 25 -24 25
-13 0 -26 -6 -28 -12z"/>
<path d="M447 369 c-9 -6 -26 -7 -37 -4 -11 4 -20 2 -20 -4 0 -13 50 -14 70
-1 20 13 9 21 -13 9z"/>
</g>
</svg>
