<?xml version="1.0" standalone="no"?>
<!DOCTYPE svg PUBLIC "-//W3C//DTD SVG 20010904//EN"
 "http://www.w3.org/TR/2001/REC-SVG-20010904/DTD/svg10.dtd">
<svg version="1.0" xmlns="http://www.w3.org/2000/svg"
 width="225.000000pt" height="225.000000pt" viewBox="0 0 225.000000 225.000000"
 preserveAspectRatio="xMidYMid meet">

<g transform="translate(0.000000,225.000000) scale(0.100000,-0.100000)"
fill="#000000" stroke="none">
<path d="M1055 2009 c-173 -25 -331 -162 -431 -373 -32 -66 -37 -88 -38 -151
-1 -77 17 -115 54 -115 13 0 16 -6 12 -25 -5 -31 20 -71 50 -81 13 -4 36 -20
52 -35 17 -16 50 -39 74 -50 36 -18 43 -25 37 -43 -3 -11 -19 -70 -35 -130
-28 -108 -28 -109 -9 -130 15 -16 19 -29 14 -53 l-6 -33 46 0 c43 0 45 -1 45
-30 0 -23 -4 -30 -20 -30 -37 0 -130 -41 -150 -68 l-21 -26 23 -18 c13 -10 17
-17 9 -16 -15 3 -19 -14 -23 -92 -3 -76 6 -94 60 -130 170 -112 588 -114 735
-3 39 30 44 45 51 150 2 34 7 66 11 72 3 6 -2 24 -11 41 -22 36 -89 66 -196
88 -70 15 -78 19 -78 39 0 20 5 23 44 23 50 0 57 6 46 35 -5 13 -1 29 12 47
19 28 19 28 -12 150 -17 67 -33 125 -35 128 -2 3 21 19 51 34 30 16 63 39 73
52 11 13 25 24 33 24 8 0 24 9 36 20 26 24 30 81 7 100 -13 11 -10 17 24 46
28 25 41 45 45 72 9 50 -17 142 -61 221 -53 94 -96 137 -162 161 -40 15 -61
29 -73 51 -35 60 -162 95 -283 78z m267 -218 c67 -53 144 -209 173 -349 20
-95 14 -132 -31 -181 -67 -75 -192 -107 -388 -98 -210 9 -314 58 -341 162
l-12 49 38 28 c47 34 55 49 74 138 18 88 36 122 76 151 33 23 62 26 140 14 70
-11 150 16 197 65 20 22 40 40 43 40 4 0 17 -9 31 -19z m229 -478 c-16 -34
-22 -25 -14 21 5 31 8 35 16 21 6 -11 5 -26 -2 -42z m-849 7 c5 -32 -6 -41
-16 -14 -9 24 -7 56 3 50 5 -3 11 -19 13 -36z m392 -207 c11 -28 -10 -35 -22
-8 -9 20 -9 25 2 25 8 0 17 -8 20 -17z m84 -8 c-8 -17 -15 -22 -21 -16 -7 7
-6 15 3 26 20 24 31 18 18 -10z m-278 -225 c0 -5 -9 -10 -20 -10 -11 0 -20 5
-20 10 0 6 9 10 20 10 11 0 20 -4 20 -10z m474 -1 c-3 -5 -11 -9 -19 -9 -8 0
-16 4 -19 9 -3 5 5 9 19 9 14 0 22 -4 19 -9z m-244 -109 c0 -11 -7 -20 -15
-20 -8 0 -15 9 -15 20 0 11 7 20 15 20 8 0 15 -9 15 -20z"/>
<path d="M1227 1579 c-36 -21 -1 -37 83 -38 83 -1 108 11 75 36 -22 16 -132
17 -158 2z"/>
<path d="M845 1530 c-11 -18 4 -25 75 -39 93 -18 94 -18 98 0 4 21 -40 40
-109 46 -38 4 -59 2 -64 -7z"/>
<path d="M874 1415 c-31 -48 15 -101 62 -70 30 20 33 69 5 85 -31 16 -49 12
-67 -15z"/>
<path d="M1286 1424 c-21 -21 -20 -57 2 -77 24 -22 45 -21 65 1 32 35 11 92
-33 92 -10 0 -26 -7 -34 -16z"/>
<path d="M1083 1327 c-13 -23 -49 -37 -92 -37 -49 0 -71 -8 -71 -26 0 -11 20
-14 95 -14 84 0 95 2 95 18 1 16 1 16 11 0 8 -15 24 -18 92 -18 87 0 125 12
97 30 -8 5 -34 10 -58 10 -46 0 -82 14 -95 36 -12 21 -24 17 -35 -13 -9 -25
-11 -25 -11 -6 -1 27 -17 38 -28 20z"/>
<path d="M1070 1229 c0 -14 59 -20 79 -9 12 6 21 12 21 13 0 2 -22 3 -50 3
-27 0 -50 -3 -50 -7z"/>
</g>
</svg>
