<?xml version="1.0" standalone="no"?>
<!DOCTYPE svg PUBLIC "-//W3C//DTD SVG 20010904//EN"
 "http://www.w3.org/TR/2001/REC-SVG-20010904/DTD/svg10.dtd">
<svg version="1.0" xmlns="http://www.w3.org/2000/svg"
 width="88.000000pt" height="91.000000pt" viewBox="0 0 88.000000 91.000000"
 preserveAspectRatio="xMidYMid meet">

<g transform="translate(0.000000,91.000000) scale(0.100000,-0.100000)"
fill="#000000" stroke="none">
<path d="M296 826 c-53 -20 -102 -70 -123 -125 -9 -25 -27 -61 -41 -79 -24
-33 -24 -35 -11 -95 8 -34 21 -69 30 -78 8 -8 19 -23 22 -33 4 -10 16 -20 27
-23 11 -3 20 -9 20 -14 0 -4 13 -16 29 -25 23 -13 29 -24 29 -51 0 -24 -4 -33
-16 -33 -10 0 -26 -3 -37 -6 -22 -6 -39 26 -90 169 -27 75 -37 88 -50 67 -7
-11 34 -131 63 -184 8 -17 15 -51 14 -78 -1 -44 2 -50 26 -59 22 -9 34 -7 65
11 21 12 41 19 44 17 2 -3 0 -21 -5 -40 -11 -39 -8 -47 20 -47 20 0 25 -29 7
-47 -17 -17 24 -35 69 -31 35 3 37 5 40 41 2 20 7 37 12 37 5 0 10 -17 12 -37
3 -36 5 -38 40 -41 51 -4 82 13 68 38 -16 29 -12 40 14 40 18 0 25 7 31 33 5
17 7 39 6 47 -1 8 -3 42 -5 75 l-3 60 53 38 c30 21 54 43 54 49 0 6 7 19 15
28 25 28 65 110 65 135 0 14 -8 29 -20 35 -11 6 -36 42 -55 80 -26 52 -46 77
-82 102 -43 30 -54 33 -113 31 -36 0 -74 -2 -85 -3 -11 -1 -38 1 -60 4 -24 4
-55 0 -79 -8z m205 -306 c24 -7 59 -10 78 -7 25 3 45 -2 63 -15 23 -16 26 -24
21 -51 -10 -52 -22 -68 -71 -90 -38 -17 -67 -21 -147 -21 -57 -1 -116 5 -137
12 -89 31 -118 116 -56 162 17 12 41 24 52 25 12 1 30 3 41 5 11 1 15 4 7 7
-6 2 -9 9 -6 14 3 6 11 3 19 -7 15 -21 45 -12 52 17 5 18 7 18 24 -10 12 -21
31 -33 60 -41z m-113 -210 c6 0 12 -4 12 -10 0 -5 -16 -10 -35 -10 -26 0 -35
4 -35 16 0 12 6 15 23 10 12 -3 28 -6 35 -6z m162 -5 c0 -10 -11 -15 -35 -15
-39 0 -48 16 -12 23 41 8 47 7 47 -8z m-40 -70 c0 -8 -4 -15 -9 -15 -13 0 -22
16 -14 24 11 11 23 6 23 -9z m-90 -40 c0 -21 -5 -25 -30 -25 -25 0 -30 4 -30
25 0 21 5 25 30 25 25 0 30 -4 30 -25z m167 -21 c-3 -3 -12 -4 -19 -1 -8 3 -5
6 6 6 11 1 17 -2 13 -5z"/>
<path d="M305 484 c-18 -19 -16 -33 7 -48 12 -7 21 -6 32 3 22 18 20 38 -3 51
-15 7 -24 6 -36 -6z"/>
<path d="M531 481 c-13 -24 9 -57 33 -48 26 10 32 38 11 53 -25 18 -32 18 -44
-5z"/>
<path d="M410 379 c0 -13 41 -22 52 -11 6 6 -1 11 -21 14 -17 3 -31 1 -31 -3z"/>
</g>
</svg>
